<svg width="22" height="21" viewBox="0 0 22 21" fill="none" xmlns="http://www.w3.org/2000/svg">
<mask id="maskMailchimp" mask-type="alpha" maskUnits="userSpaceOnUse" x="1" y="0" width="20" height="21">
<path fill-rule="evenodd" clip-rule="evenodd" d="M19.6299 13.0531L19.6299 13.0531L19.6552 13.1416H19.6565C19.942 13.1416 20.3893 13.4741 20.3893 14.2619C20.3893 15.0497 20.0626 15.9426 19.9855 16.1407C17.5742 21.9164 8.25677 21.9067 5.69743 16.0077C4.29962 16.0095 2.8526 14.8116 2.70364 13.3309C2.64654 12.8285 2.70881 12.3196 2.88541 11.8458L2.23105 11.2912C-0.763628 8.76242 8.60256 -1.64736 11.5972 0.964724C11.6072 0.973467 12.0444 1.40213 12.3437 1.69549L12.347 1.69869L12.3477 1.69939L12.6191 1.96532L13.1755 1.72902C15.8031 0.641538 17.9351 1.16644 17.9377 2.90251C17.9391 3.80513 17.3641 4.85759 16.4424 5.81296C17.3794 6.68303 17.3818 8.2185 17.3831 9.04304C17.3834 9.23941 17.3836 9.39545 17.3964 9.49258C17.422 9.49968 17.4522 9.50781 17.4863 9.51701C17.8788 9.62266 18.7944 9.86917 19.2185 10.3145C20.0324 11.1679 19.4632 12.0692 19.3546 12.2319L19.4183 12.4023C19.4675 12.5336 19.4944 12.6055 19.5187 12.6782C19.5481 12.7663 19.5736 12.8556 19.6299 13.053L19.6299 13.0531ZM15.745 9.94655L15.7462 9.94639L15.7464 9.94655H15.745ZM15.7462 9.94639C15.8827 9.9288 16.0209 9.92885 16.1573 9.94655C16.2309 9.77676 16.2438 9.48416 16.1773 9.16585C16.0784 8.69282 15.9445 8.40599 15.6683 8.45076C15.3921 8.49554 15.3815 8.83823 15.4804 9.3117C15.5362 9.5776 15.635 9.8054 15.7462 9.94639ZM13.3706 10.3225L13.3841 10.3286C13.5743 10.4137 13.6909 10.4659 13.7376 10.4169C13.8214 10.3309 13.5834 10.0006 13.2003 9.83661C12.7505 9.65025 12.2361 9.71209 11.8433 9.99975C11.7103 10.0964 11.5857 10.2312 11.6035 10.3127C11.6234 10.4004 11.7461 10.3618 11.9398 10.3009C12.1126 10.2466 12.342 10.1746 12.6054 10.1585C12.9157 10.139 13.1728 10.236 13.3706 10.3229V10.3225ZM12.3744 10.9977C12.3066 10.8394 12.5695 10.6129 12.9716 10.5499H12.972C13.4011 10.4989 13.719 10.7552 13.6543 10.8536C13.6268 10.8976 13.5667 10.8906 13.4416 10.8761L13.4353 10.8753C13.1558 10.8321 12.8699 10.8619 12.6054 10.9618C12.4436 11.0266 12.4182 11.0159 12.3854 11.0021L12.3744 10.9977ZM15.3731 11.308C15.5229 11.0034 14.8898 10.6905 14.7391 10.9977C14.5884 11.3049 15.2232 11.613 15.374 11.3067L15.3731 11.308ZM16.0558 11.1067C15.7149 11.101 15.7277 10.3948 16.0673 10.4005L16.0682 10.3992C16.4096 10.4058 16.3967 11.1125 16.0558 11.1067ZM6.36775 13.8984L6.36614 13.8988C6.30551 13.913 6.10077 13.9611 5.99225 13.7942C5.89222 13.6403 5.97173 13.4499 6.06444 13.2278C6.18538 12.9381 6.32878 12.5946 6.12525 12.2084C5.72182 11.4339 4.89191 11.6081 4.57138 11.9628C4.18524 12.3884 4.1848 13.0064 4.34972 13.0303C4.46919 13.0463 4.5099 12.9279 4.56046 12.7808C4.59001 12.6949 4.62292 12.5991 4.67689 12.5148C4.75946 12.3873 4.88954 12.2982 5.03817 12.2673C5.1868 12.2363 5.34165 12.266 5.46823 12.3498C5.80253 12.5688 5.72754 12.8361 5.64544 13.1288C5.60136 13.2859 5.55522 13.4504 5.56931 13.6186C5.63094 14.3581 6.38592 14.3444 6.52602 14.0176C6.54446 13.9848 6.54104 13.944 6.51743 13.9147C6.50972 13.8992 6.47818 13.8723 6.36863 13.897L6.36775 13.8984ZM6.51715 13.9143C6.51766 13.9296 6.52229 13.9244 6.51743 13.9147L6.51715 13.9143ZM5.64601 15.2767C4.63433 15.2496 3.54197 14.339 3.43336 13.2591C3.15983 10.5411 6.72551 9.92217 7.15731 12.7125C7.35859 14.0265 6.95028 15.3055 5.64468 15.2754L5.64601 15.2767ZM3.19839 11.2535C3.56104 10.7255 4.15332 10.3447 4.82541 10.2139C5.68148 7.917 7.11032 5.80055 9.00156 4.34421C10.4047 3.17338 11.9187 2.33372 11.9187 2.33372C11.9187 2.33372 11.1034 1.38855 10.8573 1.31894C9.34248 0.909752 6.07205 3.1654 3.98353 6.1459C3.13855 7.35219 1.93048 9.48682 2.50725 10.5885C2.57774 10.7215 2.98205 11.073 3.19839 11.2535ZM15.4156 14.6981C15.4156 14.6981 13.8312 14.9331 12.3341 14.3847C12.4621 13.969 12.73 13.9985 13.2896 14.0602C13.9331 14.1311 14.9622 14.2446 16.6077 13.7725C17.2856 13.5783 18.1758 13.1961 18.8687 12.6486C19.0178 12.9931 19.1238 13.3546 19.1844 13.725C19.3466 13.6958 19.8161 13.702 19.6915 14.5275C19.5457 15.4084 19.1715 16.1234 18.542 16.7813C18.1488 17.2074 17.6807 17.5577 17.161 17.8147C16.8715 17.9664 16.5699 18.0936 16.2593 18.1951C13.887 18.97 11.458 18.118 10.6733 16.2888C10.6097 16.1492 10.5571 16.0048 10.516 15.857C10.1821 14.6511 10.4654 13.2046 11.3512 12.294C11.4057 12.2359 11.4611 12.1676 11.4611 12.0816C11.4534 12.0076 11.4238 11.9375 11.376 11.8803C11.3146 11.7915 11.2234 11.6903 11.1182 11.5735C10.6918 11.1003 10.0359 10.3724 10.2087 9.18358C10.3639 8.1196 11.2945 7.36993 12.1625 7.41426L12.3842 7.42712C12.5639 7.43771 12.7327 7.45429 12.8939 7.47011L12.894 7.47011L12.894 7.47011C13.07 7.48738 13.2368 7.50375 13.3985 7.51046C13.9167 7.53263 14.3827 7.45771 14.9342 6.99798L14.9647 6.97249C15.1372 6.82822 15.2837 6.70567 15.522 6.66504C15.7281 6.614 15.9461 6.64991 16.125 6.76434C16.5683 7.05871 16.6303 7.77203 16.6534 8.29338C16.6663 8.5913 16.7022 9.31304 16.7146 9.5183C16.7425 9.99133 16.8666 10.0578 17.1185 10.139C17.2282 10.1751 17.3319 10.204 17.4632 10.2407L17.5844 10.2746C18.17 10.4391 18.5154 10.6062 18.737 10.8204C18.8501 10.9311 18.9239 11.0757 18.9472 11.2322C19.0163 11.7363 18.5562 12.3583 17.3375 12.9239C15.3678 13.8381 13.3878 13.5928 12.9396 13.5373C12.9166 13.5344 12.8976 13.5321 12.8829 13.5304C11.9896 13.4103 11.4806 14.5643 12.0162 15.3547C13.0199 16.8359 17.4425 16.2414 18.7268 14.4082C18.7574 14.3639 18.7322 14.3377 18.6945 14.3639C16.8427 15.6309 14.3915 16.0578 12.9995 15.5165C12.788 15.4345 12.3465 15.231 12.2928 14.7775C14.2257 15.3755 15.4405 14.8103 15.4405 14.8103C15.4405 14.8103 15.5305 14.6866 15.4156 14.6981ZM11.1579 4.11014C10.3391 4.52908 9.42494 5.2752 8.68281 6.13304L8.68547 6.1326C8.67497 6.14543 8.67537 6.164 8.68641 6.17637C8.69746 6.18874 8.71586 6.19124 8.7298 6.18225C9.23608 5.81429 11.6092 4.28614 14.6926 4.9928C14.7307 5.00123 14.7546 4.93561 14.7209 4.91655C14.2182 4.63548 13.449 4.44441 12.9033 4.44042C12.8909 4.44013 12.8798 4.43302 12.8743 4.42194C12.8688 4.41087 12.8699 4.39767 12.8771 4.38766C12.9756 4.25884 13.0905 4.14348 13.2189 4.04452C13.2309 4.03538 13.2355 4.01946 13.2302 4.00537C13.2248 3.99127 13.2109 3.98232 13.1959 3.98335C12.4192 4.03122 11.533 4.40318 11.0236 4.7503C11.0123 4.75825 10.9972 4.75836 10.9858 4.75057C10.9743 4.74278 10.9689 4.72873 10.9722 4.71528C11.0121 4.52421 11.1375 4.27239 11.2022 4.15447C11.2098 4.14175 11.2077 4.12555 11.1973 4.11511C11.1868 4.10466 11.1706 4.10261 11.1579 4.11014Z" fill="white"/>
</mask>
<g mask="url(#maskMailchimp)">
<rect width="22" height="21" fill="#242748"/>
</g>
</svg>
